# xmcd CD database file
#
# Track frame offsets:
#	150
#	13580
#	30355
#	42208
#	59875
#	77663
#	97055
#	111080
#	129288
#	140500
#
# Disc length: 2035 seconds
#
# Revision: 0
# Processed by: cddbd v1.4PL0 Copyright (c) Steve Scherf et al.
# Submitted via: Feurio! 1.62 - http://www.feurio.com
#
DISCID=8007f10a
DTITLE=John Brack - Borderline
DYEAR=1900
DGENRE=Country
TTITLE0=I've been going home since friday night
TTITLE1=She has no memory of me
TTITLE2=Keep your hands away
TTITLE3=Losing you
TTITLE4=Stolen love
TTITLE5=Borderline
TTITLE6=Hard to find harder to hold
TTITLE7=Keep your satisfied
TTITLE8=A little bit new at being blue
TTITLE9=Lord it's a great day
EXTD=
EXTT0=
EXTT1=
EXTT2=
EXTT3=
EXTT4=
EXTT5=
EXTT6=
EXTT7=
EXTT8=
EXTT9=
PLAYORDER=
